ply
format ascii 1.0
element vertex 10
property float x
property float y
property float z
property float u
property float v
property float nx
property float ny
property float nz
end_header
-34.95500905101415 1.4661351806954226 6.121026811181821 -1.190354112078026 0 0.0005109754992290166 -1.1527935602596062 0.29666421838348916
-22.117388019713665 0.40565277189545534 1.1947764854891905 -0.4806186438946156 0 0.05867759477181106 -0.4671527390367924 0.09653776018386315
-14.085964181173765 -1.8001134868117292 -12.18871661427086 1.120949656513048 0 -0.21885150703562176 1.0963351401316057 -0.0817398973425436
-14.310792527669749 -2.0106623393064456 -28.156734234991482 1.3090053573113067 0 -0.2523766139629046 1.2805861506433271 0.09949965313923134
-22.272396708696625 0.11424943428997458 -40.813845710663735 -0.29178390874930926 0 0.03513170474981131 -0.28390647028865273 -0.05745196998045996
-34.85943268912516 1.6555595479620577 -46.110473336692486 -1.3763402433094996 0 0.0018491844703269582 -1.3327886334653105 -0.3434872695977492
-47.89451298355195 0.5314963515365418 -40.88189866228923 -0.6639481711959547 0 -0.08127595600228044 -0.6456757317348363 -0.13162158811931998
-56.13892988087276 -1.8157957128699156 -28.00191288497088 1.1944776503402323 0 0.2355529860145895 1.1676219708811912 0.08916603084950907
-55.75253388239701 -1.571467121252161 -11.912421431153088 0.8864056247830518 0 0.17210011557907984 0.8669475716898538 -0.06707003657197139
-47.94528036939939 0.4147193858503548 0.8821005331269447 -0.5441215893285971 0 -0.06679387280310305 -0.5291481633331184 0.10774555104796113
