ply
format ascii 1.0
element vertex 10
property float x
property float y
property float z
property float u
property float v
property float nx
property float ny
property float nz
end_header
-0.047398144913122546 1.5980489607780144 8.992492704768614 2.333506014149312 0 0.01210968231070833 -0.40828317790601204 -2.2974787311973768
2.8807669772379256 0.8628449570089808 8.037543892524788 1.7816916526546729 0 -0.5980916915140279 -0.17913993180616355 -1.66871817827748
4.792871988310421 -0.14959021322932134 5.578329859029881 0.5560698164419984 0 -0.3623091560132674 0.01130802242061673 -0.421684532388522
4.68491143321663 -0.2027919292812508 2.514362519873824 -1.479141179751923 0 1.3023546871777805 -0.05637396210923198 0.6989655748462029
2.8964537992273884 0.9149226433021089 -0.10033471017802864 -3.7608232844482044 0 3.584211090695026 1.1321692360935136 -0.12415899093494534
0.003981299165523834 1.5497386929316248 -1.0331475025399326 -4.9374480868665795 0 0.010554045666834003 4.108209972889085 -2.7387758289566477
-2.9536177643264727 0.914856176402555 -0.04433495193018423 -3.707624649365885 0 -3.541260288980192 1.0968730912821414 -0.053155694883900775
-4.807046945426013 -0.2573598016225004 2.5279066918008875 -1.3626985879507796 0 -1.2047439691735518 -0.06449961326203178 0.6335449551784408
-4.781780765664433 -0.17581257396968225 5.572075249769548 0.5446824261596594 0 0.35461736773383523 0.013038279095377109 -0.413225690327852
-2.981691447371376 0.82067267129295 8.083923546664186 1.8552762768756486 0 0.6391316961251297 -0.17591287550206205 -1.7328056436826316
