ply
format ascii 1.0
element vertex 10
property float x
property float y
property float z
property float u
property float v
property float nx
property float ny
property float nz
end_header
5.0 0.0 3.609375 -0.6333487296081834 0 0.5135272790996837 -0.0 0.3707025046000842
4.045084971874737 2.938926261462366 4.284163091430716 -0.21562050045889336 0 0.1324655187470842 0.0962418328640481 0.14029467619328306
1.5450849718747373 4.755282581475767 5.375993158569284 0.5417506387089821 0 -0.1140124217730147 -0.3508941535242887 -0.39669662872970723
-1.5450849718747368 4.755282581475768 5.375993158569284 0.5417506387089821 0 0.11401242177301467 -0.35089415352428877 -0.39669662872970723
-4.045084971874736 2.9389262614623664 4.284163091430716 -0.21562050045889336 0 -0.1324655187470842 0.09624183286404811 0.14029467619328306
-5.0 6.123233995736766e-16 3.609375 -0.6333487296081834 0 -0.5135272790996837 6.288895386242772e-17 0.3707025046000842
-4.045084971874737 -2.938926261462365 4.284163091430715 -0.21562050045889425 0 -0.1324655187470848 -0.09624183286404848 0.14029467619328362
-1.5450849718747377 -4.755282581475767 5.375993158569284 0.5417506387089821 0 0.11401242177301474 0.3508941535242887 -0.39669662872970723
1.5450849718747361 -4.755282581475768 5.375993158569284 0.5417506387089821 0 -0.11401242177301463 0.35089415352428877 -0.39669662872970723
4.045084971874736 -2.938926261462367 4.284163091430716 -0.21562050045889336 0 0.1324655187470842 -0.09624183286404814 0.14029467619328306
