ply
format ascii 1.0
element vertex 10
property float x
property float y
property float z
property float u
property float v
property float nx
property float ny
property float nz
end_header
0.056 1.519 8.993 2.32 0 -0.014 -0.386 -2.288
2.979 0.837 8.103 1.873 0 -0.643 -0.181 -1.75
4.791 -0.23 5.518 0.511 0 -0.335 0.016 -0.386
4.801 -0.212 2.382 -1.436 0 1.285 -0.057 0.638
2.901 0.857 -0.051 -3.774 0 3.619 1.07 -0.064
0.068 1.586 -0.935 -4.958 0 0.184 4.269 -2.515
-2.972 0.861 -0.014 -3.705 0 -3.559 1.031 -0.016
-4.73 -0.171 2.511 -1.442 0 -1.273 -0.046 0.676
-4.748 -0.249 5.563 0.518 0 0.336 0.018 -0.394
-2.878 0.826 8.098 1.834 0 0.611 -0.175 -1.72
