ply
format ascii 1.0
element vertex 10
property float x
property float y
property float z
property float u
property float v
property float nx
property float ny
property float nz
end_header
-0.057 1.538 9.066 2.396 0 0.015 -0.401 -2.362
2.912 0.891 8.076 1.831 0 -0.618 -0.189 -1.713
4.735 -0.133 5.614 0.545 0 -0.352 0.01 -0.417
4.718 -0.205 2.425 -1.491 0 1.325 -0.058 0.681
2.907 0.818 -0.029 -3.78 0 3.638 1.024 -0.036
0 1.495 -1.033 -4.983 0 -0 4.099 -2.833
-2.878 0.849 -0.098 -3.798 0 -3.641 1.074 -0.124
-4.757 -0.131 2.416 -1.463 0 -1.304 -0.036 0.662
-4.729 -0.165 5.506 0.46 0 0.3 0.01 -0.349
-2.905 0.868 8.065 1.816 0 0.612 -0.183 -1.7
