ply
format ascii 1.0
element vertex 10
property float x
property float y
property float z
property float u
property float v
property float nx
property float ny
property float nz
end_header
-0.05739235456873972 1.4945567783929372 8.96713994132213 2.2910171363526706 0 0.01446338356209104 -0.3766415945756314 -2.2597989819523883
2.9274289389634522 0.8200973097016796 8.068285920232558 1.8220436951272498 0 -0.6186356309219204 -0.17330614241461598 -1.7050214556151968
4.683608093479747 -0.2503722558827452 5.557288488555566 0.4720235412749467 0 -0.30401074277060364 0.016251542392291356 -0.36072091589992217
4.729741106084083 -0.26783417402372817 2.5262799317940496 -1.431175513285818 0 1.2608141078107258 -0.07139695336147776 0.6734341916067724
2.8688313800037712 0.8743997159445185 -0.023103404957022344 -3.800783082626599 0 3.6355509042592984 1.1080904580672808 -0.02927798593128221
0.07007220990386583 1.4991286837475097 -1.0145831337966629 -4.988460361896541 0 0.19295875962277215 4.128170236498846 -2.7938708269680035
-2.8912792340354585 0.8785306199366884 -0.06542956304330688 -3.777485701100647 0 -3.613470403906883 1.0979722597171524 -0.08177272773047194
-4.711443210358926 -0.25804439035446197 2.485510774691394 -1.4668913527907907 0 -1.2958999640963582 -0.07097606853466429 0.6836489754565691
-4.810964643035408 -0.22753554322657568 5.476652694062926 0.4932076585926808 0 0.3253444462626928 0.015387231212205445 -0.37036201060059915
-2.9578730768426427 0.8830172281966676 8.076946740842248 1.8467219926631673 0 0.6317271755870555 -0.18859023530476773 -1.7250323524381543
