ply
format ascii 1.0
element vertex 10
property float x
property float y
property float z
property float u
property float v
property float nx
property float ny
property float nz
end_header
0.04381819396550791 1.6105287867797837 8.990067724300436 2.3332929819795654 0 -0.011194284981820339 -0.4114436625304506 -2.2967030588002375
2.9067016183182672 0.8849093318068934 8.068874247235119 1.8219899351105182 0 -0.6142411592686988 -0.18699811855172002 -1.7051061039015698
4.811415729320718 -0.2141382070169302 5.512759425708778 0.5202522482357272 0 -0.3419485784768053 0.015218858566052249 -0.39179325902313256
4.716837835661507 -0.15288221694532547 2.4888152753278243 -1.4646336944038074 0 1.2948388600614742 -0.04196833607814585 0.6832150788913252
2.8890753709389982 0.8785853668812349 -0.07232496361557178 -3.779420643944917 0 3.614879733899814 1.0993068817750025 -0.09049471255019473
-0.03174655805100205 1.5678283010864502 -1.0345747733596755 -4.921320041276871 0 -0.08316210094887228 4.107024617786395 -2.7101335396130706
-2.9988020295829387 0.9533443486999388 -0.05152635801594118 -3.6528848090037678 0 -3.480736393257205 1.1065553301254318 -0.05980710556709534
-4.768010919731134 -0.13101015402404503 2.5062957250339406 -1.4118082761972781 0 -1.2493091602027546 -0.03432714149720165 0.6566969455763054
-4.688279904077155 -0.21682834197897163 5.517851074930788 0.4438707521582623 0 0.28727601562067845 0.013286233636175782 -0.33810828364063217
-2.9504863196277875 0.8162375979298949 7.995966139739225 1.7619558423552553 0 0.6071774608951239 -0.1679726724714081 -1.6454814197351426
