ply
format ascii 1.0
element vertex 10
property float x
property float y
property float z
property float u
property float v
property float nx
property float ny
property float nz
end_header
0.0 5.5625 5.0 0.6793987893412936 0 0.0 -0.5052753399239157 -0.45418008083048605
2.938926261462366 4.887711908569285 4.045084971874737 0.19211897075343032 0 -0.08075141324598142 -0.1342972259398544 -0.11114478524426528
4.755282581475767 3.7958818414307154 1.5450849718747373 -0.5223635853847481 0 0.3956881690367159 0.3158562104314118 0.12856687968636463
4.755282581475768 3.7958818414307154 -1.5450849718747368 -0.5223635853847473 0 0.39568816903671516 0.3158562104314112 -0.12856687968636438
2.9389262614623664 4.887711908569284 -4.045084971874736 0.19211897075342943 0 -0.08075141324598109 -0.13429722593985377 0.11114478524426476
6.123233995736766e-16 5.5625 -5.0 0.6793987893412936 0 -5.562101822255408e-17 -0.5052753399239157 0.45418008083048605
-2.938926261462365 4.887711908569285 -4.045084971874737 0.19211897075343032 0 0.08075141324598141 -0.1342972259398544 0.11114478524426528
-4.755282581475767 3.795881841430716 -1.5450849718747377 -0.5223635853847481 0 -0.3956881690367159 0.3158562104314119 -0.12856687968636465
-4.755282581475768 3.7958818414307154 1.5450849718747361 -0.5223635853847473 0 -0.39568816903671516 0.3158562104314112 0.12856687968636432
-2.938926261462367 4.887711908569284 4.045084971874736 0.19211897075342943 0 0.08075141324598109 -0.13429722593985377 -0.11114478524426476
