ply
format ascii 1.0
element vertex 10
property float x
property float y
property float z
property float u
property float v
property float nx
property float ny
property float nz
end_header
4.976213050275541 -0.056318745559089056 3.6681879229798113 -0.6176484440684797 0 0.49714905728825814 -0.005626529848999947 0.36647067748930273
4.035211154418986 2.921298880534021 4.2800797002202 -0.23219987740234505 0 0.142662005216151 0.10328043321259305 0.15131915757362013
1.5119110408226728 4.716463914988703 5.384576844791332 0.5160491150767328 0 -0.10664504057024762 -0.3326832544912097 -0.3798096584795944
-1.5044283265728373 4.712322588709532 5.449059083294117 0.5594519947538874 0 0.11436387231894336 -0.35822208964154173 -0.4142274419146652
-4.116433206528746 2.998619417142532 4.2298480268391 -0.17970128447126754 0 -0.1117363983770505 0.08139447841485514 0.11481492848023798
-5.036873919821603 0.015590205822224508 3.651975048705338 -0.5784838105922301 0 -0.46833439468850524 0.0014495954679523383 0.3395648870864563
-4.065827276596408 -2.887401210154502 4.298379327828282 -0.21637622297426873 0 -0.13362676531512405 -0.09489682114654682 0.14126978019487224
-1.568665657753253 -4.7723400848678414 5.422302719368032 0.5917053926625622 0 0.12557155347378135 0.38202542090477515 -0.43405487492558764
1.51810195818719 -4.69512872271327 5.374079348771432 0.49586157524870433 0 -0.10317745486408603 0.3191033574894377 -0.36524808261627345
4.03367794125035 -2.886606223178853 4.210679683694004 -0.29362799863871913 0 0.1820370524148766 -0.13027051142983276 0.19002501673330513
