ply
format ascii 1.0
element vertex 10
property float x
property float y
property float z
property float u
property float v
property float nx
property float ny
property float nz
end_header
-35.099 1.73 5.75 -1.489 0 -0.001 -1.443 0.367
-22.014 0.436 0.991 -0.489 0 0.06 -0.476 0.097
-13.95 -1.626 -11.728 1.062 0 -0.209 1.038 -0.082
-13.969 -1.916 -28.078 1.326 0 -0.26 1.297 0.1
-21.917 0.392 -41.062 -0.42 0 0.052 -0.409 -0.084
-35.233 1.577 -46.167 -1.237 0 -0.003 -1.198 -0.309
-47.836 0.41 -40.807 -0.518 0 -0.063 -0.504 -0.102
-55.747 -1.631 -27.899 0.979 0 0.19 0.958 0.072
-56.018 -2.004 -12.141 1.393 0 0.273 1.363 -0.102
-47.871 0.542 0.805 -0.643 0 -0.079 -0.625 0.127
