ply
format ascii 1.0
element vertex 10
property float x
property float y
property float z
property float u
property float v
property float nx
property float ny
property float nz
end_header
-0.054 1.583 9.04 2.378 0 0.014 -0.41 -2.342
2.989 0.919 8.114 1.896 0 -0.652 -0.2 -1.769
4.785 -0.195 5.611 0.577 0 -0.374 0.015 -0.439
4.733 -0.189 2.446 -1.469 0 1.304 -0.052 0.674
3.005 0.824 -0.114 -3.682 0 3.549 0.973 -0.135
-0.062 1.488 -0.932 -5.043 0 -0.178 4.271 -2.675
-2.925 0.935 -0.075 -3.728 0 -3.55 1.135 -0.091
-4.769 -0.167 2.454 -1.434 0 -1.275 -0.045 0.656
-4.767 -0.163 5.573 0.535 0 0.348 0.012 -0.407
-2.974 0.891 7.991 1.773 0 0.615 -0.184 -1.653
