ply
format ascii 1.0
element vertex 10
property float x
property float y
property float z
property float u
property float v
property float nx
property float ny
property float nz
end_header
0.0650944949061907 1.554691791252741 9.051963610231526 2.3847345666606783 0 -0.016901206123646203 -0.4036618835520661 -2.3502617697663077
2.946039085310118 0.8482556855583215 8.024585007363978 1.7902647538168255 0 -0.6139729203868876 -0.17678177560302152 -1.672373566403469
4.787960525590421 -0.2734689128297323 5.597196465880419 0.5707502683621444 0 -0.37075326871647313 0.021175925069152654 -0.43341603889216673
4.762344599839841 -0.18665092390121543 2.419832060941399 -1.4548758800027128 0 1.2962505893261975 -0.050804045157371955 0.6586479977049967
2.8987619567929297 0.9560195778632503 -0.06806362986922146 -3.746898794157197 0 3.557486944641891 1.173268870560631 -0.08353065145527917
-0.0252769564151118 1.6351443454348966 -0.9653804121717211 -4.900975172585105 0 -0.06523439506455347 4.219956329627551 -2.4914394819125216
-3.005586211503234 0.8610579882074606 -0.003666648413392308 -3.673503114003657 0 -3.5314381270669526 1.0117071330489502 -0.004308158573540625
-4.785653777726666 -0.23355707645185939 2.409176241688708 -1.4370566708431847 0 -1.282365906840426 -0.06258405769701582 0.6455639332478272
-4.696880942135902 -0.23818056528401038 5.5975656049605 0.510961719781827 0 0.3282641129566558 0.016646394266684447 -0.39121279220534233
-2.960112616272961 0.9477531879922351 7.998585289315931 1.7812510414757705 0 0.6144446369343136 -0.1967296312639774 -1.66030434351173
