ply
format ascii 1.0
element vertex 10
property float x
property float y
property float z
property float u
property float v
property float nx
property float ny
property float nz
end_header
-34.77190130812531 1.7033710847945578 5.763627540710002 -1.4676490853464657 0 0.003202538100113544 -1.4223707700522394 0.3617249977110148
-21.88662500759293 0.2797167054674971 0.7858627445933779 -0.3700379640478957 0 0.045938164612189566 -0.3598827591600775 0.07281606641466412
-14.165589752748273 -1.566522832045095 -11.999084411930003 0.9322424492065124 0 -0.18163578348127435 0.911712132486848 -0.06975251778957045
-13.93827952395533 -1.7355426032094816 -28.114722154393917 1.150556689514488 0 -0.22615564617751371 1.1247408589362502 0.0871339183551156
-21.93363039063911 0.2998757298136119 -41.20788078232037 -0.3115952553833381 0 0.03852285201200632 -0.30281692522861253 -0.06252601734764195
-35.2024825564603 1.8975612109401714 -46.03791097360981 -1.587828461478125 0 -0.003079215395706085 -1.537660614767146 -0.39596663408229066
-47.9063901622372 0.12449448434268984 -41.192858514269865 -0.16378344875820972 0 -0.019972870919538144 -0.15921841372752873 -0.03279632974059843
-55.721920997038914 -1.6197370410264316 -28.0359306338912 0.9650606353405777 0 0.18695740575565523 0.9439981176397749 0.07250180831976828
-55.92201182235028 -1.8857073814095813 -12.095207071052481 1.2543440466238422 0 0.24468380470771997 1.2267690885292903 -0.09244688444422668
-47.75094946544975 0.3318997719812933 0.927652010592485 -0.4371722918476735 0 -0.05280610535041628 -0.4252289619814812 0.08666866728651243
