ply
format ascii 1.0
element vertex 10
property float x
property float y
property float z
property float u
property float v
property float nx
property float ny
property float nz
end_header
-35.006 1.531 5.975 -1.285 0 -0 -1.245 0.319
-21.824 0.516 0.856 -0.615 0 0.077 -0.598 0.122
-13.893 -1.795 -12.186 1.158 0 -0.228 1.133 -0.084
-13.911 -1.999 -27.786 1.352 0 -0.266 1.322 0.098
-21.971 0.506 -41.198 -0.555 0 0.069 -0.539 -0.112
-35.232 1.832 -46.12 -1.54 0 -0.003 -1.491 -0.385
-47.7 0.244 -41.125 -0.355 0 -0.043 -0.345 -0.071
-56.127 -1.694 -27.865 1.067 0 0.211 1.043 0.078
-55.938 -1.787 -12.054 1.127 0 0.22 1.102 -0.084
-47.877 0.313 1.167 -0.392 0 -0.048 -0.382 0.079
