ply
format ascii 1.0
element vertex 10
property float x
property float y
property float z
property float u
property float v
property float nx
property float ny
property float nz
end_header
0 5.562 5 0.679 0 0 -0.505 -0.454
2.939 4.888 4.045 0.192 0 -0.081 -0.134 -0.111
4.755 3.796 1.545 -0.522 0 0.396 0.316 0.129
4.755 3.796 -1.545 -0.522 0 0.396 0.316 -0.129
2.939 4.888 -4.045 0.192 0 -0.081 -0.134 0.111
0 5.562 -5 0.679 0 -0 -0.505 0.454
-2.939 4.888 -4.045 0.192 0 0.081 -0.134 0.111
-4.755 3.796 -1.545 -0.522 0 -0.396 0.316 -0.129
-4.755 3.796 1.545 -0.522 0 -0.396 0.316 0.129
-2.939 4.888 4.045 0.192 0 0.081 -0.134 -0.111
