ply
format ascii 1.0
element vertex 10
property float x
property float y
property float z
property float u
property float v
property float nx
property float ny
property float nz
end_header
-35.24386816485088 1.925551489123757 5.923883176214834 -1.7012647462057942 0 -0.003977846045526359 -1.6478708601604235 0.4228564078474516
-22.206544234351693 0.17846645886784407 1.1059081546535519 -0.3056156977191904 0 0.036992324009155836 -0.2971668370011323 0.06102781041075995
-14.183253168380828 -1.9176775093527552 -12.02345280802093 1.211840146170175 0 -0.23529648860446362 1.1853535932984578 -0.09016075185242975
-13.958233394876974 -1.7890172392126882 -28.202994488093648 1.1470633814476514 0 -0.22526272948590995 1.1212935583354542 0.08781719534404302
-22.067074987360524 0.2982739394083309 -40.88288395262093 -0.4494673687167392 0 0.055072462737332704 -0.4371271276578299 -0.08892588855226351
-35.10174564575595 1.4790057914461665 -45.98753706652169 -1.253135210059952 0 -0.0012172302380864207 -1.2139550998749118 -0.31090093041070277
-48.10591229159288 0.3210074634543525 -40.91217236705456 -0.4444381253132832 0 -0.05518200070130736 -0.43211965059635665 -0.08804999488398163
-56.121064927190915 -2.0251476111840923 -28.015320334307784 1.3792958560120496 0 0.2713018100593625 1.3484258045791757 0.10295744662494784
-55.94871542438589 -1.7681061317366777 -11.94769571271994 1.096948581488391 0 0.21456879932764109 1.072592222149567 -0.08247633459812245
-48.12073344904657 0.578361639226578 0.970355560362324 -0.6812268171047151 0 -0.08486801750008428 -0.6621698052885224 0.135641236032361
