ply
format ascii 1.0
element vertex 10
property float x
property float y
property float z
property float u
property float v
property float nx
property float ny
property float nz
end_header
-34.853503885765065 1.6695672935787433 6.088875162823202 -1.4545420705776024 0 0.0020382019989305237 -1.4085232609576122 0.36297479823553247
-22.126355445487434 0.14043254836123942 1.2518189042733325 -0.27193697220772606 0 0.03311154882798129 -0.2643209511352681 0.054660561455815784
-13.913585723818647 -1.931302390826999 -11.917168642326333 1.2433018629178605 0 -0.24446075136091244 1.215424842109143 -0.09370654493174842
-13.957341936835299 -1.919058002631622 -28.070891839802623 1.2218368436983695 0 -0.23978972630734474 1.1945406949337327 0.09197112548771759
-22.17739045267983 0.16576419632348433 -40.84359072076291 -0.38408501501564274 0 0.0466309663768229 -0.3736324083487892 -0.07580023196411566
-35.02658674172024 1.8280896570305096 -46.11863462884819 -1.6006997607780704 0 -0.00040764057818333565 -1.549796332856301 -0.4004633374596143
-47.928483920948956 0.4048929565964097 -40.86176444664743 -0.6001611203132455 0 -0.07361655839726239 -0.5836634041011666 -0.1187897444160511
-55.84442839973556 -2.0045331466474883 -27.98564787931774 1.2603269241853354 0 0.24492554782169482 1.2327330832735839 0.09383270886803811
-55.7209002526903 -1.942146445632814 -12.001718346360551 1.1762979980588284 0 0.2274192516488835 1.1507612419307531 -0.0877839865047134
-47.794278307247396 0.44175639597908206 0.9701711198881768 -0.630872995905662 0 -0.07660274803102762 -0.6134891610225429 0.12555399342488796
