ply
format ascii 1.0
element vertex 10
property float x
property float y
property float z
property float u
property float v
property float nx
property float ny
property float nz
end_header
-34.824 1.598 5.835 -1.339 0 0.002 -1.298 0.331
-22.04 0.581 1.132 -0.604 0 0.074 -0.587 0.121
-14.042 -1.986 -11.908 1.382 0 -0.27 1.352 -0.104
-13.832 -1.964 -28.025 1.397 0 -0.275 1.366 0.104
-21.88 0.483 -40.936 -0.528 0 0.066 -0.513 -0.105
-34.899 1.62 -46.103 -1.294 0 0.001 -1.253 -0.323
-47.777 0.518 -40.851 -0.621 0 -0.075 -0.604 -0.123
-55.717 -1.779 -28.034 1.129 0 0.218 1.104 0.085
-55.774 -1.709 -11.865 1.079 0 0.209 1.055 -0.082
-47.783 0.558 0.953 -0.639 0 -0.078 -0.622 0.127
